<svg xmlns="http://www.w3.org/2000/svg" xmlns:xlink="http://www.w3.org/1999/xlink" width="790" height="685" viewBox="0 0 790 685">
  <defs>
    <filter id="Path_2" x="0" y="0" width="790" height="685" filterUnits="userSpaceOnUse">
      <feOffset dy="14" input="SourceAlpha"/>
      <feGaussianBlur stdDeviation="15" result="blur"/>
      <feFlood flood-opacity="0.29"/>
      <feComposite operator="in" in2="blur"/>
      <feComposite in="SourceGraphic"/>
    </filter>
    <filter id="Rectangle_26" x="54.5" y="53.5" width="443" height="124" filterUnits="userSpaceOnUse">
      <feOffset dy="10" input="SourceAlpha"/>
      <feGaussianBlur stdDeviation="12.5" result="blur-2"/>
      <feFlood flood-opacity="0.392"/>
      <feComposite operator="in" in2="blur-2"/>
      <feComposite in="SourceGraphic"/>
    </filter>
    <filter id="The_Raw_Doggins" x="78" y="56" width="276" height="119" filterUnits="userSpaceOnUse">
      <feOffset dy="10" input="SourceAlpha"/>
      <feGaussianBlur stdDeviation="15" result="blur-3"/>
      <feFlood flood-opacity="0.482"/>
      <feComposite operator="in" in2="blur-3"/>
      <feComposite in="SourceGraphic"/>
    </filter>
    <filter id="Rectangle_33" x="552.5" y="53.5" width="183" height="124" filterUnits="userSpaceOnUse">
      <feOffset dy="10" input="SourceAlpha"/>
      <feGaussianBlur stdDeviation="12.5" result="blur-4"/>
      <feFlood flood-opacity="0.384"/>
      <feComposite operator="in" in2="blur-4"/>
      <feComposite in="SourceGraphic"/>
    </filter>
    <filter id="Icon_awesome-star" x="68.214" y="56.07" width="53.548" height="52.434" filterUnits="userSpaceOnUse">
      <feOffset dy="3" input="SourceAlpha"/>
      <feGaussianBlur stdDeviation="3" result="blur-5"/>
      <feFlood flood-opacity="0.161"/>
      <feComposite operator="in" in2="blur-5"/>
      <feComposite in="SourceGraphic"/>
    </filter>
  </defs>
  <g id="Component_24_1" data-name="Component 24 – 1" transform="translate(45 31)">
    <g transform="matrix(1, 0, 0, 1, -45, -31)" filter="url(#Path_2)">
      <path id="Path_2-2" data-name="Path 2" d="M55,0H645a55,55,0,0,1,55,55V540a55,55,0,0,1-55,55H55A55,55,0,0,1,0,540V55A55,55,0,0,1,55,0Z" transform="translate(45 31)" fill="rgba(255,204,67,0.76)"/>
    </g>
    <g transform="matrix(1, 0, 0, 1, -45, -31)" filter="url(#Rectangle_26)">
      <rect id="Rectangle_26-2" data-name="Rectangle 26" width="368" height="49" rx="14" transform="translate(92 81)" fill="#7cafff"/>
    </g>
    <g transform="matrix(1, 0, 0, 1, -45, -31)" filter="url(#The_Raw_Doggins)">
      <text id="The_Raw_Doggins-2" data-name="The Raw Doggins" transform="translate(124 115)" fill="#fff" font-size="25" font-family="HelveticaNeue-Thin, Helvetica Neue" font-weight="200"><tspan x="0" y="0">The Raw Doggins</tspan></text>
    </g>
    <rect id="Rectangle_27" data-name="Rectangle 27" width="368" height="49" rx="14" transform="translate(47 123)" fill="#fff"/>
    <text id="Asian_Women" data-name="Asian Women" transform="translate(79 157)" fill="#7c7c7c" font-size="25" font-family="HelveticaNeue-Thin, Helvetica Neue" font-weight="200"><tspan x="0" y="0">Asian Women</tspan></text>
    <rect id="Rectangle_28" data-name="Rectangle 28" width="368" height="49" rx="14" transform="translate(47 196)" fill="#fff"/>
    <text id="Honolulu_BC" data-name="Honolulu BC" transform="translate(79 230)" fill="#7c7c7c" font-size="25" font-family="HelveticaNeue-Thin, Helvetica Neue" font-weight="200"><tspan x="0" y="0">Honolulu BC</tspan></text>
    <rect id="Rectangle_29" data-name="Rectangle 29" width="368" height="49" rx="14" transform="translate(47 269)" fill="#fff"/>
    <text id="Boris_Johnsons" data-name="Boris Johnsons" transform="translate(79 303)" fill="#7c7c7c" font-size="25" font-family="HelveticaNeue-Thin, Helvetica Neue" font-weight="200"><tspan x="0" y="0">Boris Johnsons</tspan></text>
    <rect id="Rectangle_30" data-name="Rectangle 30" width="368" height="49" rx="14" transform="translate(47 342)" fill="#fff"/>
    <text id="Princeton_Crafters" data-name="Princeton Crafters" transform="translate(79 376)" fill="#7c7c7c" font-size="25" font-family="HelveticaNeue-Thin, Helvetica Neue" font-weight="200"><tspan x="0" y="0">Princeton Crafters</tspan></text>
    <rect id="Rectangle_31" data-name="Rectangle 31" width="368" height="49" rx="14" transform="translate(47 415)" fill="#fff"/>
    <text id="Public_Safety" data-name="Public Safety" transform="translate(79 449)" fill="#7c7c7c" font-size="25" font-family="HelveticaNeue-Thin, Helvetica Neue" font-weight="200"><tspan x="0" y="0">Public Safety</tspan></text>
    <rect id="Rectangle_32" data-name="Rectangle 32" width="368" height="49" rx="14" transform="translate(47 488)" fill="#fff"/>
    <text id="Houston_Hoors" data-name="Houston Hoors" transform="translate(79 522)" fill="#7c7c7c" font-size="25" font-family="HelveticaNeue-Thin, Helvetica Neue" font-weight="200"><tspan x="0" y="0">Houston Hoors</tspan></text>
    <g transform="matrix(1, 0, 0, 1, -45, -31)" filter="url(#Rectangle_33)">
      <rect id="Rectangle_33-2" data-name="Rectangle 33" width="108" height="49" rx="14" transform="translate(590 81)" fill="#7baefe"/>
    </g>
    <text id="_12-2-0" data-name="12-2-0" transform="translate(562 84)" fill="#fff" font-size="25" font-family="HelveticaNeue, Helvetica Neue"><tspan x="0" y="0">12-2-0</tspan></text>
    <rect id="Rectangle_34" data-name="Rectangle 34" width="108" height="49" rx="14" transform="translate(545 123)" fill="#fff"/>
    <text id="_10-4-0" data-name="10-4-0" transform="translate(562 157)" fill="#7c7c7c" font-size="25" font-family="HelveticaNeue, Helvetica Neue"><tspan x="0" y="0">10-4-0</tspan></text>
    <rect id="Rectangle_35" data-name="Rectangle 35" width="108" height="49" rx="14" transform="translate(546 196)" fill="#fff"/>
    <text id="_9-4-0_" data-name="9-4-0
" transform="translate(569 230)" fill="#7c7c7c" font-size="25" font-family="HelveticaNeue, Helvetica Neue"><tspan x="0" y="0">9-4-0</tspan><tspan x="0" y="30"></tspan></text>
    <rect id="Rectangle_36" data-name="Rectangle 36" width="108" height="49" rx="14" transform="translate(546 269)" fill="#fff"/>
    <text id="_7-7-0" data-name="7-7-0" transform="translate(563 303)" fill="#7c7c7c" font-size="25" font-family="HelveticaNeue, Helvetica Neue"><tspan x="0" y="0">7-7-0</tspan></text>
    <rect id="Rectangle_37" data-name="Rectangle 37" width="108" height="49" rx="14" transform="translate(547 342)" fill="#fff"/>
    <text id="_4-10-0" data-name="4-10-0" transform="translate(564 376)" fill="#7c7c7c" font-size="25" font-family="HelveticaNeue, Helvetica Neue"><tspan x="0" y="0">4-10-0</tspan></text>
    <rect id="Rectangle_38" data-name="Rectangle 38" width="108" height="49" rx="14" transform="translate(547 415)" fill="#fff"/>
    <text id="_3-10-0" data-name="3-10-0" transform="translate(564 449)" fill="#7c7c7c" font-size="25" font-family="HelveticaNeue, Helvetica Neue"><tspan x="0" y="0">3-10-0</tspan></text>
    <rect id="Rectangle_39" data-name="Rectangle 39" width="108" height="49" rx="14" transform="translate(545 488)" fill="#fff"/>
    <text id="_3-11-0" data-name="3-11-0" transform="translate(562 522)" fill="#7c7c7c" font-size="25" font-family="HelveticaNeue, Helvetica Neue"><tspan x="0" y="0">3-11-0</tspan></text>
    <g transform="matrix(1, 0, 0, 1, -45, -31)" filter="url(#Icon_awesome-star)">
      <path id="Icon_awesome-star-2" data-name="Icon awesome-star" d="M15.392,1.04,11.577,8.774,3.042,10.018a1.87,1.87,0,0,0-1.034,3.19l6.175,6.017-1.46,8.5a1.868,1.868,0,0,0,2.711,1.969l7.635-4.013L24.7,29.693a1.87,1.87,0,0,0,2.711-1.969l-1.46-8.5,6.175-6.017a1.87,1.87,0,0,0-1.034-3.19L22.559,8.774,18.745,1.04a1.871,1.871,0,0,0-3.353,0Z" transform="translate(109.51 96.73) rotate(-171)" fill="#ffe834"/>
    </g>
  </g>
</svg>
